<svg width="44" height="44" viewBox="0 0 44 44" fill="none" xmlns="http://www.w3.org/2000/svg">
<rect width="44" height="44" rx="22" fill="#01b3e9"/>
<path d="M18.9457 12.9941V29.8863L22.6098 31.0066V16.8613C22.6098 16.4541 22.6097 16.2513 22.8129 16.0473C22.9145 15.8441 23.1175 15.8441 23.3207 15.9457C23.8295 16.1489 24.1363 16.5563 24.1363 17.3707V22.966C25.3571 23.5764 26.3735 23.5764 27.1879 22.966C28.0023 22.3556 28.4098 21.4409 28.4098 19.9145C28.4106 18.2865 28.1046 17.2687 27.3926 16.4551C26.7822 15.6407 25.6636 14.9279 24.0348 14.4191C21.9996 13.8087 20.2689 13.2997 18.9457 12.9941ZM17.9285 23.5785L13.2473 25.2066L12.5363 25.5113C11.4171 26.0201 10.8066 26.5291 10.8066 27.0379C10.9082 27.6483 11.1115 28.4635 12.6379 28.9723C14.0627 29.4811 15.182 29.6843 18.0316 28.8707V27.0379C15.2828 27.9531 14.8763 27.852 14.4691 27.6488C14.0619 27.4456 14.0613 27.2411 14.1629 27.1395C14.4685 26.9363 15.5879 26.5285 15.5879 26.5285L17.9285 25.7145V23.5785ZM28.2832 24.3707C27.9525 24.3596 27.6218 24.3656 27.291 24.391C26.1718 24.391 25.1532 24.5948 23.9316 24.9004V27.0379L26.1707 26.2223L27.391 25.816C27.391 25.816 27.901 25.7145 28.2066 25.6129C28.7154 25.5113 29.3254 25.7145 29.3254 25.7145C29.631 25.7145 29.8348 25.8151 29.8348 26.0191C29.9364 26.2223 29.7326 26.3253 29.2238 26.5285L28.1051 26.9363L24.0348 28.4613V30.5988L25.866 29.9879L30.9535 28.1566L31.5645 27.8504C32.7853 27.4432 33.2942 26.9342 33.1926 26.3238C33.1926 25.7142 32.4806 25.3076 31.2598 24.9004C30.2674 24.595 29.2754 24.4041 28.2832 24.3707Z" fill="white"/>
</svg>
