<svg width="20" height="20" viewBox="12 12 20 20" fill="none" xmlns="http://www.w3.org/2000/svg">
<!-- <rect width="22" height="22" rx="22" fill="none"/> -->
<path d="M21.9781 12.1816C20.1464 12.1816 18.4003 12.6942 16.9523 13.5907C16.8588 13.6218 16.6973 13.7448 16.5505 13.875C17.8503 12.8424 20.8562 14.9106 21.7339 15.5266C21.8816 15.6304 22.0756 15.6304 22.2233 15.5266C23.1009 14.9106 26.1068 12.8419 27.4067 13.875C27.2598 13.7448 27.0979 13.6218 27.0048 13.5907C25.5564 12.6942 23.8099 12.1816 21.9781 12.1816ZM16.0019 14.7429C15.3201 14.7429 14.8221 15.2982 14.8221 15.2982C13.2034 17.0484 12.1816 19.3959 12.1816 21.9998C12.1816 27.4212 16.5688 31.818 21.9781 31.818C24.8318 31.818 27.4302 30.5801 29.2192 28.6164C29.2192 28.6164 29.0063 27.3356 27.686 25.4574C26.2094 23.2303 23.2183 20.4255 22.2608 19.5645C22.0973 19.4176 21.8535 19.4184 21.6913 19.567C20.9699 20.2273 19.1084 22.0757 18.6982 22.5551C17.7185 23.5796 14.9924 26.8234 14.8221 28.6589C14.8221 28.6589 14.2255 27.2079 15.5458 23.8783C16.3675 21.8779 18.9197 18.9041 20.1572 17.6068C20.3216 17.4348 20.3176 17.1629 20.1439 16.9999C19.7341 16.6161 18.7788 15.9435 17.9178 15.4257C17.3219 15.0416 16.6409 14.7856 16.0019 14.7429ZM27.8219 14.7429C27.5431 14.7429 25.7321 15.3161 23.8266 17.0049C23.6464 17.1645 23.6392 17.4431 23.8065 17.616C24.4968 18.3293 26.3847 20.1563 27.5159 21.9573C28.9216 24.2624 29.7731 26.0978 29.2617 28.6164C30.8378 26.8662 31.818 24.5611 31.818 21.9998C31.7753 19.4386 30.7954 17.0909 29.1767 15.3407C29.134 15.298 29.0914 15.255 29.0491 15.2123C28.7085 14.8281 28.2052 14.7429 27.8219 14.7429Z" fill="#0e7a0d"/>
</svg>
